<svg width="16" height="16" viewBox="0 0 16 16" fill="none" xmlns="http://www.w3.org/2000/svg">
<path d="M12.8 0.199951H3.19996C1.53328 0.199951 0.199951 1.53328 0.199951 3.19996V12.8C0.199951 14.4666 1.53328 15.8 3.19996 15.8H12.8C14.4666 15.8 15.8 14.4666 15.8 12.8V3.19995C15.8 1.53328 14.4666 0.199951 12.8 0.199951ZM13.6666 1.99995H14V4.66661H11.3333V1.99995H13.6666ZM5.79997 6.39996C6.26663 5.73329 7.1333 5.26661 7.99997 5.26661C8.86664 5.26661 9.73331 5.73329 10.2 6.39996C10.5333 6.86662 10.7333 7.39995 10.7333 7.99996C10.7333 9.53328 9.46663 10.7333 7.99997 10.7333C6.5333 10.7333 5.26664 9.53329 5.26664 7.99996C5.26663 7.39995 5.46663 6.86662 5.79997 6.39996ZM14.2666 12.8C14.2666 13.6 13.6 14.2666 12.8 14.2666H3.19996C2.39996 14.2666 1.73329 13.6 1.73329 12.8V6.39996H4.06662C3.86661 6.86662 3.73329 7.46662 3.73329 7.99996C3.73329 10.3333 5.66663 12.2666 7.99996 12.2666C10.3333 12.2666 12.2666 10.3333 12.2666 7.99996C12.2666 7.46662 12.1333 6.86661 11.9333 6.39996H14.2666L14.2666 12.8Z" fill="white"/>
</svg>
