<svg width="19" height="16" viewBox="0 0 19 16" fill="none" xmlns="http://www.w3.org/2000/svg">
<path d="M18.8005 2.49863C18.1149 2.80267 17.3773 3.00831 16.6038 3.10015C17.3935 2.62698 17.9996 1.87829 18.2857 0.984711C17.5467 1.42309 16.7279 1.7411 15.8571 1.91252C15.1595 1.16953 14.1655 0.7052 13.0648 0.7052C10.9531 0.7052 9.24039 2.41792 9.24039 4.52965C9.24039 4.82941 9.27433 5.12119 9.33993 5.40127C6.16149 5.24183 3.34328 3.71935 1.45687 1.40483C1.12773 1.96956 0.938917 2.62698 0.938917 3.32775C0.938917 4.65429 1.61459 5.82538 2.64022 6.51104C2.01361 6.49136 1.4235 6.31938 0.908114 6.03216C0.907828 6.04842 0.907828 6.06468 0.907828 6.08065C0.907828 7.93369 2.22666 9.47928 3.97589 9.83038C3.65531 9.91822 3.31676 9.96471 2.96851 9.96471C2.72151 9.96471 2.48222 9.94104 2.24891 9.89654C2.73549 11.4156 4.14759 12.5214 5.82152 12.5525C4.51238 13.5784 2.86355 14.1896 1.07126 14.1896C0.763224 14.1896 0.458044 14.1716 0.159424 14.136C1.85103 15.2215 3.8618 15.8544 6.02145 15.8544C13.056 15.8544 16.903 10.0269 16.903 4.97259C16.903 4.80688 16.8993 4.64174 16.8919 4.47803C17.6397 3.93897 18.288 3.26558 18.8005 2.49863Z" fill="#F1F2F2"/>
</svg>
